<svg width="128" height="39" viewBox="0 0 128 39" fill="none" xmlns="http://www.w3.org/2000/svg">
<g clip-path="url(#clip0_1010_151873)">
<path d="M117.807 0.00012675H10.1989C9.80663 0.00012675 9.41909 0.00012675 9.02789 0.00207675C8.70041 0.00402675 8.37554 0.0096915 8.04492 0.0144592C7.32666 0.0221635 6.61008 0.0797611 5.90143 0.186751C5.19377 0.296071 4.50827 0.50217 3.86813 0.798076C3.22877 1.09649 2.64457 1.48424 2.13672 1.94727C1.62621 2.409 1.20066 2.94269 0.876427 3.52783C0.551304 4.11181 0.325862 4.73759 0.207889 5.38357C0.0887936 6.02873 0.0247074 6.68133 0.0162054 7.33552C0.00627891 7.63445 0.00523064 7.93438 0 8.23336V30.7698C0.00523064 31.0725 0.00627891 31.3658 0.0162054 31.6686C0.02471 32.3228 0.0887962 32.9753 0.207889 33.6205C0.325536 34.2668 0.550991 34.893 0.876427 35.4772C1.20051 36.0604 1.62612 36.5919 2.13672 37.0511C2.64265 37.5162 3.22722 37.9042 3.86813 38.2003C4.50827 38.497 5.19369 38.7044 5.90143 38.8154C6.61021 38.9215 7.32671 38.9791 8.04492 38.9877C8.37554 38.9944 8.70041 38.9982 9.02789 38.9982C9.41908 39.0001 9.80665 39.0001 10.1989 39.0001H117.807C118.191 39.0001 118.582 39.0001 118.966 38.9982C119.292 38.9982 119.627 38.9944 119.953 38.9877C120.669 38.9796 121.385 38.922 122.092 38.8154C122.802 38.7036 123.49 38.4963 124.133 38.2003C124.773 37.904 125.357 37.516 125.863 37.0511C126.372 36.5901 126.799 36.059 127.127 35.4772C127.45 34.8925 127.673 34.2664 127.789 33.6205C127.908 32.9752 127.975 32.3228 127.987 31.6686C127.992 31.3658 127.992 31.0725 127.992 30.7698C128 30.4155 128 30.0633 128 29.7033V9.29785C128 8.9408 128 8.5866 127.992 8.23336C127.992 7.93438 127.992 7.63445 127.987 7.33548C127.975 6.68124 127.908 6.02878 127.789 5.38353C127.673 4.73793 127.449 4.11219 127.127 3.52779C126.466 2.35494 125.419 1.40025 124.133 0.797989C123.49 0.502805 122.802 0.296761 122.092 0.186664C121.385 0.079202 120.669 0.0215843 119.953 0.0143227C119.627 0.00956475 119.292 0.00385125 118.966 0.00195C118.582 0 118.191 0 117.807 0V0.00012675Z" fill="white"/>
<path d="M9.03287 38.1453C8.70697 38.1453 8.38894 38.1415 8.06559 38.1349C7.39575 38.1269 6.72747 38.0738 6.06624 37.9759C5.44968 37.8791 4.8524 37.699 4.29409 37.4417C3.74091 37.1864 3.23636 36.8518 2.79978 36.4505C2.35687 36.0539 1.98814 35.594 1.70818 35.0889C1.42513 34.5805 1.22925 34.0356 1.12735 33.4731C1.01731 32.8687 0.957773 32.2576 0.949254 31.645C0.942472 31.4394 0.933594 30.7547 0.933594 30.7547V8.23167C0.933594 8.23167 0.94305 7.55754 0.949307 7.35949C0.957464 6.74786 1.01666 6.13767 1.12637 5.53422C1.22846 4.97021 1.42449 4.42372 1.70769 3.91368C1.98662 3.40893 2.35331 2.94865 2.79354 2.55068C3.23328 2.14892 3.73944 1.81253 4.29357 1.55377C4.85059 1.29723 5.44675 1.11845 6.06206 1.02343C6.72546 0.924528 7.39606 0.871059 8.06822 0.863467L9.0334 0.851562H118.961L119.938 0.863945C120.604 0.871159 121.268 0.924151 121.925 1.02247C122.547 1.11869 123.149 1.29871 123.713 1.55662C124.823 2.0781 125.726 2.90312 126.296 3.91606C126.575 4.42258 126.768 4.96461 126.868 5.52375C126.98 6.13215 127.042 6.74713 127.054 7.36378C127.058 7.6399 127.058 7.9365 127.058 8.23167C127.066 8.59729 127.066 8.9453 127.066 9.29616V29.7016C127.066 30.0558 127.066 30.4015 127.058 30.7499C127.058 31.067 127.057 31.3575 127.053 31.6564C127.041 32.262 126.98 32.866 126.871 33.4636C126.771 34.0301 126.576 34.5793 126.293 35.0918C126.011 35.5914 125.644 36.0474 125.207 36.4429C124.77 36.8463 124.264 37.1829 123.71 37.4398C123.148 37.6992 122.546 37.8799 121.925 37.9759C121.264 38.0743 120.596 38.1275 119.926 38.1349C119.613 38.1415 119.285 38.1453 118.966 38.1453L117.807 38.1473L9.03287 38.1453Z" fill="black"/>
<path d="M26.4961 19.7945C26.5076 18.9807 26.7447 18.1828 27.1855 17.475C27.6262 16.7672 28.2562 16.1725 29.0168 15.7462C28.5336 15.1172 27.8961 14.5995 27.155 14.2343C26.414 13.8691 25.5897 13.6665 24.7476 13.6425C22.9514 13.4706 21.21 14.6222 20.2947 14.6222C19.3617 14.6222 17.9524 13.6595 16.4348 13.688C15.4532 13.7169 14.4966 13.9771 13.6581 14.4432C12.8196 14.9093 12.1279 15.5654 11.6503 16.3477C9.58161 19.6124 11.1247 24.4104 13.1064 27.0494C14.0978 28.3416 15.2566 29.785 16.7728 29.7338C18.2564 29.6777 18.8106 28.8715 20.6015 28.8715C22.3758 28.8715 22.8957 29.7338 24.4427 29.7013C26.0347 29.6777 27.0378 28.4033 27.9945 27.0989C28.7069 26.1781 29.255 25.1605 29.6187 24.0837C28.6937 23.7271 27.9044 23.1302 27.3491 22.3675C26.7938 21.6047 26.4972 20.7099 26.4961 19.7945Z" fill="white"/>
<path d="M23.5743 11.9034C24.4423 10.9535 24.87 9.73263 24.7664 8.5C23.4402 8.62696 22.2152 9.20471 21.3354 10.1181C20.9053 10.5643 20.5758 11.0835 20.3659 11.6458C20.156 12.2082 20.0697 12.8027 20.112 13.3955C20.7754 13.4017 21.4316 13.2706 22.0313 13.0122C22.631 12.7537 23.1586 12.3746 23.5743 11.9034Z" fill="white"/>
<path d="M45.2517 26.46H40.1886L38.9727 29.7325H36.8281L41.6238 17.625H43.8519L48.6477 29.7325H46.4666L45.2517 26.46ZM40.713 24.9499H44.7263L42.7479 19.6388H42.6925L40.713 24.9499Z" fill="white"/>
<path d="M59.0053 25.3207C59.0053 28.0638 57.3945 29.8262 54.9637 29.8262C54.348 29.8556 53.7356 29.7263 53.1967 29.4532C52.6578 29.18 52.2142 28.7741 51.9167 28.2818H51.8707V32.6541H49.8828V20.9065H51.807V22.3747H51.8435C52.1548 21.8848 52.6059 21.481 53.1489 21.2062C53.6919 20.9314 54.3064 20.7959 54.9272 20.8141C57.3851 20.8141 59.0053 22.5851 59.0053 25.3207ZM56.962 25.3207C56.962 23.5335 55.9488 22.3585 54.4028 22.3585C52.8839 22.3585 51.8623 23.5582 51.8623 25.3207C51.8623 27.0993 52.8839 28.2904 54.4028 28.2904C55.9488 28.2904 56.962 27.124 56.962 25.3207Z" fill="white"/>
<path d="M69.6654 25.3206C69.6654 28.0638 68.0547 29.8262 65.6239 29.8262C65.0081 29.8556 64.3958 29.7263 63.8569 29.4531C63.318 29.18 62.8744 28.7741 62.5768 28.2818H62.5308V32.6541H60.543V20.9065H62.4671V22.3747H62.5037C62.8149 21.8848 63.266 21.481 63.809 21.2062C64.352 20.9314 64.9665 20.7959 65.5873 20.8141C68.0453 20.8141 69.6654 22.5851 69.6654 25.3206ZM67.6222 25.3206C67.6222 23.5335 66.6089 22.3585 65.0629 22.3585C63.5441 22.3585 62.5225 23.5582 62.5225 25.3206C62.5225 27.0993 63.5441 28.2904 65.0629 28.2904C66.6089 28.2904 67.6222 27.124 67.6222 25.3206H67.6222Z" fill="white"/>
<path d="M76.7068 26.3578C76.8541 27.5585 78.1337 28.3468 79.8823 28.3468C81.5579 28.3468 82.7633 27.5585 82.7633 26.4759C82.7633 25.5361 82.0363 24.9734 80.3148 24.5878L78.5933 24.2097C76.1542 23.6727 75.0218 22.633 75.0218 20.9458C75.0218 18.8568 77.0191 17.4219 79.8552 17.4219C82.662 17.4219 84.5861 18.8568 84.6509 20.9458H82.6442C82.5241 19.7375 81.4283 19.0082 79.8269 19.0082C78.2256 19.0082 77.1298 19.7461 77.1298 20.8201C77.1298 21.6761 77.8297 22.1798 79.5418 22.5654L81.0052 22.8929C83.7306 23.4804 84.8629 24.4782 84.8629 26.2492C84.8629 28.5144 82.8834 29.9331 79.735 29.9331C76.7893 29.9331 74.8004 28.5477 74.6719 26.3577L76.7068 26.3578Z" fill="white"/>
<path d="M89.1554 18.8125V20.9015H90.997V22.3364H89.1554V27.2028C89.1554 27.9588 89.5241 28.3111 90.3337 28.3111C90.5523 28.3077 90.7706 28.2937 90.9876 28.2692V29.6955C90.6236 29.7575 90.2536 29.7856 89.8834 29.7793C87.9227 29.7793 87.1581 29.1081 87.1581 27.3961V22.3364H85.75V20.9015H87.1581V18.8125H89.1554Z" fill="white"/>
<path d="M92.0625 25.3196C92.0625 22.5422 93.8571 20.7969 96.6556 20.7969C99.4634 20.7969 101.25 22.5421 101.25 25.3196C101.25 28.1046 99.4728 29.8423 96.6556 29.8423C93.8393 29.8423 92.0625 28.1046 92.0625 25.3196ZM99.2242 25.3196C99.2242 23.4143 98.2663 22.2898 96.6556 22.2898C95.0448 22.2898 94.088 23.4229 94.088 25.3196C94.088 27.2324 95.0448 28.3484 96.6556 28.3484C98.2663 28.3484 99.2242 27.2324 99.2242 25.3196H99.2242Z" fill="white"/>
<path d="M102.891 20.9064H104.787V22.4089H104.833C104.961 21.9396 105.262 21.5249 105.687 21.2345C106.111 20.9441 106.632 20.7956 107.162 20.814C107.391 20.8133 107.62 20.836 107.843 20.8816V22.5765C107.554 22.4959 107.252 22.4589 106.95 22.467C106.661 22.4563 106.373 22.5027 106.106 22.603C105.839 22.7033 105.598 22.8552 105.402 23.0481C105.205 23.2411 105.056 23.4705 104.966 23.7208C104.876 23.971 104.846 24.2361 104.878 24.4979V29.7338H102.891L102.891 20.9064Z" fill="white"/>
<path d="M117.005 27.1401C116.738 28.7425 115.026 29.8423 112.835 29.8423C110.018 29.8423 108.27 28.1217 108.27 25.3615C108.27 22.5926 110.028 20.7969 112.752 20.7969C115.431 20.7969 117.116 22.4746 117.116 25.151V25.7719H110.276V25.8813C110.245 26.2062 110.289 26.5335 110.407 26.8414C110.525 27.1494 110.713 27.4309 110.96 27.6674C111.206 27.9039 111.505 28.0899 111.836 28.213C112.168 28.3362 112.524 28.3937 112.881 28.3817C113.351 28.4218 113.823 28.3226 114.226 28.0989C114.628 27.8752 114.941 27.5389 115.118 27.1401L117.005 27.1401ZM110.286 24.5055H115.127C115.145 24.2134 115.097 23.9211 114.985 23.6469C114.873 23.3727 114.7 23.1226 114.477 22.9122C114.254 22.7018 113.985 22.5358 113.688 22.4244C113.392 22.313 113.073 22.2588 112.752 22.2651C112.428 22.2633 112.107 22.32 111.808 22.4319C111.508 22.5438 111.236 22.7086 111.007 22.9169C110.777 23.1252 110.596 23.3728 110.472 23.6455C110.348 23.9181 110.285 24.2104 110.286 24.5055V24.5055Z" fill="white"/>
<path d="M40.4617 8.51441C40.8784 8.48715 41.2966 8.54454 41.6861 8.68244C42.0756 8.82034 42.4266 9.0353 42.7139 9.31184C43.0012 9.58837 43.2176 9.91958 43.3474 10.2816C43.4773 10.6436 43.5174 11.0273 43.4649 11.4051C43.4649 13.2637 42.3628 14.3321 40.4617 14.3321H38.1562V8.51441H40.4617ZM39.1476 13.5093H40.3509C40.6487 13.5256 40.9467 13.4811 41.2233 13.3791C41.4998 13.2771 41.748 13.1201 41.9496 12.9197C42.1512 12.7193 42.3013 12.4804 42.3888 12.2204C42.4764 11.9605 42.4993 11.686 42.4558 11.417C42.4961 11.149 42.4709 10.8762 42.382 10.6182C42.2931 10.3602 42.1427 10.1232 41.9415 9.92439C41.7403 9.72556 41.4934 9.56975 41.2184 9.46812C40.9434 9.36649 40.6472 9.32156 40.3509 9.33654H39.1476V13.5093Z" fill="white"/>
<path d="M44.585 12.1373C44.5547 11.8488 44.5909 11.5577 44.6913 11.2827C44.7916 11.0077 44.954 10.7548 45.1678 10.5403C45.3817 10.3259 45.6424 10.1545 45.9332 10.0372C46.224 9.91995 46.5384 9.85938 46.8564 9.85938C47.1744 9.85938 47.4889 9.91995 47.7797 10.0372C48.0704 10.1545 48.3311 10.3259 48.545 10.5403C48.7589 10.7548 48.9212 11.0077 49.0216 11.2827C49.122 11.5577 49.1582 11.8488 49.1279 12.1373C49.1587 12.4262 49.123 12.7177 49.0229 12.9931C48.9227 13.2686 48.7605 13.5219 48.5466 13.7368C48.3327 13.9517 48.0718 14.1235 47.7807 14.241C47.4896 14.3585 47.1748 14.4192 46.8564 14.4192C46.5381 14.4192 46.2232 14.3585 45.9322 14.241C45.6411 14.1235 45.3802 13.9517 45.1663 13.7368C44.9523 13.5219 44.7901 13.2686 44.69 12.9931C44.5899 12.7177 44.5541 12.4262 44.585 12.1373ZM48.1501 12.1373C48.1501 11.1857 47.6811 10.6291 46.858 10.6291C46.0317 10.6291 45.5669 11.1857 45.5669 12.1374C45.5669 13.0966 46.0318 13.6489 46.858 13.6489C47.6811 13.6489 48.1502 13.0928 48.1502 12.1373H48.1501Z" fill="white"/>
<path d="M55.165 14.3279H54.1789L53.1834 11.0944H53.1082L52.1169 14.3279H51.1402L49.8125 9.9375H50.7767L51.6395 13.2876H51.7105L52.7008 9.9375H53.6127L54.603 13.2876H54.6782L55.5369 9.9375H56.4874L55.165 14.3279Z" fill="white"/>
<path d="M57.6055 9.94063H58.5205V10.6381H58.5916C58.7121 10.3876 58.9153 10.1776 59.173 10.0374C59.4306 9.89717 59.7298 9.83372 60.0289 9.85588C60.2633 9.83982 60.4986 9.87203 60.7175 9.95013C60.9363 10.0282 61.1331 10.1502 61.2932 10.307C61.4533 10.4638 61.5726 10.6515 61.6424 10.8561C61.7121 11.0606 61.7305 11.2769 61.6961 11.4888V14.3309H60.7455V11.7064C60.7455 11.0009 60.4092 10.65 59.7061 10.65C59.547 10.6432 59.3882 10.6679 59.2405 10.7223C59.0928 10.7768 58.9598 10.8597 58.8506 10.9654C58.7413 11.071 58.6585 11.197 58.6076 11.3346C58.5568 11.4722 58.5392 11.6182 58.556 11.7626V14.331H57.6055L57.6055 9.94063Z" fill="white"/>
<path d="M63.2109 8.22656H64.1615V14.3308H63.2109V8.22656Z" fill="white"/>
<path d="M65.4834 12.1374C65.4531 11.8489 65.4893 11.5578 65.5898 11.2827C65.6902 11.0077 65.8525 10.7548 66.0664 10.5404C66.2803 10.3259 66.541 10.1545 66.8318 10.0372C67.1226 9.91995 67.4371 9.85938 67.7551 9.85938C68.0731 9.85938 68.3876 9.91995 68.6784 10.0372C68.9692 10.1545 69.2299 10.3259 69.4438 10.5404C69.6577 10.7548 69.82 11.0077 69.9204 11.2827C70.0208 11.5578 70.0571 11.8489 70.0268 12.1374C70.0576 12.4263 70.0218 12.7178 69.9217 12.9932C69.8215 13.2687 69.6593 13.522 69.4453 13.7369C69.2314 13.9518 68.9705 14.1235 68.6794 14.241C68.3883 14.3586 68.0735 14.4193 67.7551 14.4193C67.4367 14.4193 67.1219 14.3586 66.8308 14.241C66.5397 14.1235 66.2788 13.9518 66.0649 13.7369C65.8509 13.522 65.6887 13.2687 65.5885 12.9932C65.4884 12.7178 65.4526 12.4263 65.4834 12.1374ZM69.0486 12.1374C69.0486 11.1858 68.5795 10.6292 67.7564 10.6292C66.9301 10.6292 66.4653 11.1858 66.4653 12.1374C66.4653 13.0967 66.9302 13.649 67.7564 13.649C68.5795 13.649 69.0486 13.0929 69.0486 12.1374H69.0486Z" fill="white"/>
<path d="M71.0273 13.0929C71.0273 12.3026 71.6729 11.847 72.8188 11.7822L74.1235 11.7137V11.3347C74.1235 10.871 73.7872 10.6092 73.1374 10.6092C72.6068 10.6092 72.2391 10.7868 72.1336 11.0972H71.2133C71.3104 10.3431 72.0887 9.85938 73.1813 9.85938C74.3888 9.85938 75.0699 10.4073 75.0699 11.3347V14.3345H74.1549V13.7175H74.0796C73.927 13.9388 73.7126 14.1192 73.4584 14.2403C73.2043 14.3614 72.9194 14.4189 72.6329 14.4068C72.4307 14.426 72.2263 14.4063 72.033 14.3491C71.8396 14.2919 71.6616 14.1983 71.5103 14.0745C71.359 13.9507 71.2379 13.7994 71.1547 13.6303C71.0715 13.4613 71.0281 13.2782 71.0273 13.0929ZM74.1235 12.7177V12.3507L72.9473 12.4192C72.284 12.4597 71.9831 12.6653 71.9831 13.0524C71.9831 13.4475 72.3592 13.6775 72.8763 13.6775C73.0278 13.6915 73.1809 13.6775 73.3263 13.6365C73.4718 13.5954 73.6068 13.5281 73.7231 13.4386C73.8395 13.3491 73.9349 13.2391 74.0037 13.1152C74.0725 12.9914 74.1132 12.8562 74.1235 12.7177Z" fill="white"/>
<path d="M76.3203 12.1337C76.3203 10.7464 77.1027 9.8676 78.3197 9.8676C78.6207 9.85496 78.9194 9.92068 79.181 10.0571C79.4425 10.1935 79.6561 10.3949 79.7967 10.6379H79.8678V8.22656H80.8183V14.3308H79.9074V13.6371H79.8322C79.6808 13.8784 79.4598 14.0774 79.1931 14.2124C78.9265 14.3474 78.6245 14.4134 78.3197 14.4031C77.0944 14.4032 76.3203 13.5243 76.3203 12.1337ZM77.3023 12.1337C77.3023 13.0649 77.7838 13.6253 78.5892 13.6253C79.3904 13.6253 79.8855 13.0568 79.8855 12.1375C79.8855 11.2225 79.3852 10.646 78.5892 10.646C77.789 10.646 77.3022 11.2101 77.3022 12.1337H77.3023Z" fill="white"/>
<path d="M84.749 12.1373C84.7187 11.8488 84.755 11.5577 84.8553 11.2827C84.9557 11.0077 85.118 10.7548 85.3319 10.5403C85.5458 10.3259 85.8065 10.1545 86.0973 10.0372C86.388 9.91995 86.7025 9.85938 87.0205 9.85938C87.3385 9.85938 87.6529 9.91995 87.9437 10.0372C88.2345 10.1545 88.4952 10.3259 88.7091 10.5403C88.9229 10.7548 89.0853 11.0077 89.1856 11.2827C89.286 11.5577 89.3222 11.8488 89.292 12.1373C89.3228 12.4262 89.287 12.7177 89.1869 12.9931C89.0868 13.2686 88.9246 13.5219 88.7106 13.7368C88.4967 13.9517 88.2358 14.1235 87.9448 14.241C87.6537 14.3585 87.3388 14.4192 87.0205 14.4192C86.7021 14.4192 86.3873 14.3585 86.0962 14.241C85.8051 14.1235 85.5442 13.9517 85.3303 13.7368C85.1164 13.5219 84.9542 13.2686 84.8541 12.9931C84.7539 12.7177 84.7182 12.4262 84.749 12.1373ZM88.3142 12.1373C88.3142 11.1857 87.8452 10.6291 87.0221 10.6291C86.1958 10.6291 85.731 11.1857 85.731 12.1374C85.731 13.0966 86.1958 13.6489 87.0221 13.6489C87.8452 13.6489 88.3142 13.0928 88.3142 12.1373Z" fill="white"/>
<path d="M90.5664 9.94063H91.4815V10.6381H91.5525C91.673 10.3876 91.8762 10.1776 92.1339 10.0374C92.3915 9.89717 92.6908 9.83372 92.9899 9.85588C93.2242 9.83982 93.4595 9.87203 93.6784 9.95013C93.8972 10.0282 94.094 10.1502 94.2541 10.307C94.4142 10.4638 94.5336 10.6515 94.6033 10.8561C94.6731 11.0606 94.6914 11.2769 94.657 11.4888V14.3309H93.7065V11.7064C93.7065 11.0009 93.3701 10.65 92.6671 10.65C92.508 10.6432 92.3491 10.6679 92.2014 10.7223C92.0538 10.7768 91.9208 10.8597 91.8115 10.9654C91.7023 11.071 91.6194 11.197 91.5686 11.3346C91.5177 11.4722 91.5001 11.6182 91.517 11.7626V14.331H90.5664V9.94063Z" fill="white"/>
<path d="M100.029 8.84375V9.95681H101.072V10.6866H100.029V12.9442C100.029 13.4041 100.237 13.6054 100.71 13.6054C100.831 13.6051 100.952 13.5984 101.072 13.5854V14.3072C100.902 14.335 100.729 14.3498 100.555 14.3514C99.4981 14.3514 99.0771 14.0125 99.0771 13.166V10.6866H98.3125V9.95677H99.0771V8.84375H100.029Z" fill="white"/>
<path d="M102.371 8.22656H103.313V10.646H103.389C103.515 10.3931 103.724 10.182 103.987 10.0412C104.249 9.90048 104.553 9.83703 104.857 9.8595C105.09 9.84794 105.323 9.88342 105.54 9.96341C105.756 10.0434 105.95 10.1659 106.109 10.3223C106.267 10.4786 106.386 10.6649 106.456 10.8678C106.527 11.0707 106.547 11.2853 106.516 11.4962V14.3308H105.564V11.71C105.564 11.0087 105.206 10.6536 104.534 10.6536C104.371 10.6414 104.207 10.6618 104.053 10.7136C103.899 10.7653 103.76 10.847 103.644 10.953C103.529 11.0591 103.44 11.1868 103.384 11.3273C103.329 11.4679 103.307 11.6178 103.322 11.7666V14.3308H102.371L102.371 8.22656Z" fill="white"/>
<path d="M112.059 13.1491C111.93 13.5504 111.65 13.8975 111.269 14.1296C110.887 14.3618 110.428 14.4644 109.972 14.4193C109.655 14.4269 109.339 14.3715 109.048 14.2569C108.756 14.1423 108.496 13.9713 108.284 13.7557C108.072 13.5401 107.915 13.2851 107.822 13.0083C107.729 12.7316 107.704 12.4398 107.747 12.1532C107.705 11.8657 107.731 11.5732 107.823 11.2957C107.916 11.0181 108.073 10.7619 108.283 10.5444C108.494 10.3269 108.753 10.1532 109.044 10.035C109.335 9.91685 109.65 9.85698 109.968 9.85945C111.308 9.85945 112.117 10.694 112.117 12.0727V12.375H108.715V12.4236C108.701 12.5847 108.723 12.7469 108.781 12.8997C108.839 13.0525 108.931 13.1927 109.052 13.3111C109.172 13.4295 109.319 13.5236 109.482 13.5874C109.645 13.6511 109.821 13.6831 109.998 13.6813C110.226 13.7062 110.456 13.6689 110.66 13.5741C110.864 13.4793 111.033 13.3314 111.144 13.1491L112.059 13.1491ZM108.715 11.7342H111.148C111.16 11.5869 111.138 11.4389 111.084 11.2997C111.029 11.1606 110.943 11.0334 110.832 10.9262C110.72 10.8191 110.585 10.7345 110.435 10.6778C110.286 10.6211 110.125 10.5935 109.963 10.5969C109.798 10.595 109.635 10.6231 109.483 10.6796C109.331 10.7361 109.192 10.8198 109.076 10.9258C108.96 11.0318 108.868 11.158 108.806 11.2968C108.744 11.4356 108.713 11.5844 108.715 11.7342H108.715Z" fill="white"/>
</g>
<defs>
<clipPath id="clip0_1010_151873">
<rect width="128" height="39" fill="white"/>
</clipPath>
</defs>
</svg>
