<svg width="128" height="38" viewBox="0 0 128 38" fill="none" xmlns="http://www.w3.org/2000/svg">
<g clip-path="url(#clip0_1010_151872)">
<path fill-rule="evenodd" clip-rule="evenodd" d="M123.258 38H4.74249C2.1287 38 0 35.8584 0 33.25V4.75C0 2.13217 2.1287 0 4.74249 0H123.258C125.869 0 128 2.13217 128 4.75V33.25C128 35.8584 125.869 38 123.258 38Z" fill="black"/>
<path fill-rule="evenodd" clip-rule="evenodd" d="M123.258 0.760474C125.45 0.760474 127.244 2.55387 127.244 4.75V33.25C127.244 35.4461 125.462 37.2395 123.258 37.2395H4.74249C2.5502 37.2395 0.755878 35.4461 0.755878 33.25V4.75C0.755878 2.55387 2.53843 0.760474 4.74249 0.760474C4.74249 0.760474 123.258 0.760474 123.258 0.760474ZM123.258 0H4.74249C2.1287 0 0 2.14165 0 4.75V33.25C0 35.8678 2.1287 38 4.74249 38H123.258C125.869 38 128 35.8678 128 33.25V4.75C128 2.14165 125.869 0 123.258 0Z" fill="white"/>
<path d="M67.4291 12.5727C66.5743 12.5727 65.8537 12.2718 65.2839 11.6796C64.7187 11.1039 64.4032 10.3102 64.4173 9.50001C64.4173 8.6353 64.7093 7.90325 65.2839 7.32283C65.8514 6.73056 66.5719 6.42969 67.4267 6.42969C68.272 6.42969 68.9926 6.73056 69.5719 7.32283C70.1464 7.92221 70.4384 8.65425 70.4384 9.50001C70.429 10.3671 70.137 11.0991 69.5719 11.6772C69.0044 12.2742 68.2838 12.5727 67.4291 12.5727ZM41.9955 12.5727C41.1595 12.5727 40.4343 12.2766 39.8409 11.6914C39.2522 11.1086 38.9531 10.3718 38.9531 9.50238C38.9531 8.63293 39.2522 7.89615 39.8409 7.31335C40.4225 6.72819 41.1477 6.43206 41.9955 6.43206C42.4099 6.43206 42.8125 6.51497 43.1987 6.68318C43.5778 6.84665 43.8863 7.06934 44.1147 7.34178L44.1712 7.41049L43.5331 8.04066L43.4672 7.96248C43.1069 7.53131 42.6242 7.32046 41.986 7.32046C41.4162 7.32046 40.9193 7.5242 40.5096 7.92694C40.0975 8.33206 39.888 8.86273 39.888 9.50475C39.888 10.1468 40.0975 10.6774 40.5096 11.0826C40.9193 11.4853 41.4162 11.689 41.986 11.689C42.5936 11.689 43.1045 11.4853 43.5025 11.0826C43.738 10.8456 43.884 10.514 43.9358 10.0947H41.8895V9.20862H44.8141L44.8259 9.28916C44.847 9.43842 44.8682 9.59241 44.8682 9.73455C44.8682 10.5519 44.6233 11.2129 44.1383 11.7009C43.5873 12.2789 42.8667 12.5727 41.9955 12.5727ZM75.8119 12.4471H74.9101L72.148 8.00039L72.1715 8.80113V12.4448H71.2696V6.55762H72.2987L72.3269 6.60263L74.9242 10.7912L74.9007 9.99278V6.55762H75.8119V12.4471V12.4471ZM60.6521 12.4471H59.7385V7.44365H58.1537V6.55762H62.2345V7.44365H60.6497V12.4471H60.6521ZM57.4096 12.4471H56.4983V6.55762H57.4096V12.4471ZM52.288 12.4471H51.3768V7.44365H49.792V6.55762H53.8728V7.44365H52.288V12.4471ZM49.2151 12.4377H45.7207V6.55762H49.2151V7.44365H46.6343V9.05936H48.9631V9.93592H46.6343V11.5516H49.2151V12.4377ZM65.9526 11.0707C66.36 11.4806 66.8545 11.6867 67.4291 11.6867C68.0201 11.6867 68.5028 11.4853 68.9055 11.0707C69.3058 10.668 69.5083 10.1397 69.5083 9.50238C69.5083 8.8651 69.3058 8.33443 68.9078 7.93405C68.5005 7.5242 68.0036 7.31809 67.4314 7.31809C66.8404 7.31809 66.3576 7.51946 65.9573 7.93405C65.557 8.33679 65.3545 8.8651 65.3545 9.50238C65.3545 10.1397 65.5547 10.6703 65.9526 11.0707Z" fill="white"/>
<path fill-rule="evenodd" clip-rule="evenodd" d="M64.3359 20.6667C62.1107 20.6667 60.3069 22.3653 60.3069 24.7084C60.3069 27.0301 62.1225 28.75 64.3359 28.75C66.5612 28.75 68.3649 27.0395 68.3649 24.7084C68.3649 22.3653 66.5612 20.6667 64.3359 20.6667ZM64.3359 27.1485C63.1185 27.1485 62.0707 26.1345 62.0707 24.6989C62.0707 23.2419 63.1209 22.2493 64.3359 22.2493C65.5533 22.2493 66.6012 23.2419 66.6012 24.6989C66.6036 26.144 65.5533 27.1485 64.3359 27.1485ZM55.5456 20.6667C53.3204 20.6667 51.5166 22.3653 51.5166 24.7084C51.5166 27.0301 53.3321 28.75 55.5456 28.75C57.7709 28.75 59.5746 27.0395 59.5746 24.7084C59.5746 22.3653 57.7685 20.6667 55.5456 20.6667ZM55.5456 27.1485C54.3282 27.1485 53.2803 26.1345 53.2803 24.6989C53.2803 23.2419 54.3306 22.2493 55.5456 22.2493C56.763 22.2493 57.8109 23.2419 57.8109 24.6989C57.8109 26.144 56.763 27.1485 55.5456 27.1485ZM45.0858 21.901V23.6115H49.1666C49.0418 24.571 48.7262 25.2793 48.2435 25.765C47.6454 26.3667 46.7223 27.0206 45.0952 27.0206C42.5874 27.0206 40.6258 24.9832 40.6258 22.4601C40.6258 19.937 42.5874 17.8996 45.0952 17.8996C46.4492 17.8996 47.4358 18.4374 48.1681 19.1245L49.3738 17.9115C48.3565 16.9307 47.0025 16.1797 45.1046 16.1797C41.6643 16.1797 38.7773 18.9989 38.7773 22.4506C38.7773 25.9119 41.6619 28.7216 45.1046 28.7216C46.9625 28.7216 48.3565 28.1104 49.4585 26.959C50.5818 25.8289 50.9373 24.2346 50.9373 22.9481C50.9373 22.5478 50.9067 22.1877 50.8431 21.8821H45.0834C45.0858 21.8797 45.0858 21.901 45.0858 21.901ZM87.8694 23.2324C87.5327 22.3251 86.5154 20.6572 84.4291 20.6572C82.3616 20.6572 80.6427 22.2943 80.6427 24.6989C80.6427 26.9685 82.3428 28.7405 84.6293 28.7405C86.466 28.7405 87.5351 27.6105 87.9754 26.9471L86.612 26.0279C86.1599 26.7031 85.5312 27.1461 84.6387 27.1461C83.7368 27.1461 83.1057 26.7339 82.6866 25.9213L88.0578 23.6826C88.0578 23.6849 87.8694 23.2324 87.8694 23.2324ZM82.3923 24.5828C82.3499 23.0216 83.5979 22.2279 84.4903 22.2279C85.1944 22.2279 85.7808 22.5762 85.9809 23.0832L82.3923 24.5828ZM78.0289 28.4989H79.7926V16.6251H78.0289V28.4989ZM75.1325 21.5646H75.0689C74.671 21.0884 73.9151 20.6572 72.9497 20.6572C70.9458 20.6572 69.0996 22.4317 69.0996 24.7107C69.0996 26.9803 70.9363 28.7334 72.9497 28.7334C73.9033 28.7334 74.671 28.2999 75.0689 27.8142H75.1325V28.3946C75.1325 29.9369 74.3131 30.7685 72.992 30.7685C71.9112 30.7685 71.2401 29.9867 70.9669 29.3328L69.434 29.9772C69.8743 31.0433 71.0494 32.3629 72.9897 32.3629C75.0572 32.3629 76.8091 31.138 76.8091 28.1506V20.8989H75.1419V21.5646C75.1443 21.5646 75.1325 21.5646 75.1325 21.5646ZM73.1074 27.1485C71.89 27.1485 70.8728 26.1251 70.8728 24.7107C70.8728 23.2845 71.89 22.2516 73.1074 22.2516C74.3131 22.2516 75.2479 23.2964 75.2479 24.7107C75.2597 26.1251 74.3154 27.1485 73.1074 27.1485ZM96.1276 16.6251H91.9102V28.4989H93.6739V24.0024H96.1299C98.082 24.0024 100.001 22.5786 100.001 20.3185C100.001 18.0584 98.0891 16.6251 96.1276 16.6251ZM96.1794 22.344H93.6716V18.2692H96.1794C97.5004 18.2692 98.2469 19.3661 98.2469 20.3066C98.2469 21.2377 97.491 22.344 96.1794 22.344ZM107.07 20.6454C105.789 20.6454 104.468 21.2163 103.922 22.4601L105.485 23.114C105.822 22.4601 106.439 22.2374 107.091 22.2374C108.005 22.2374 108.928 22.787 108.949 23.7678V23.8934C108.634 23.7134 107.941 23.4385 107.113 23.4385C105.424 23.4385 103.712 24.3672 103.712 26.1085C103.712 27.7029 105.097 28.7263 106.639 28.7263C107.824 28.7263 108.476 28.1885 108.883 27.5655H108.947V28.4847H110.647V23.936C110.647 21.8181 109.083 20.6454 107.07 20.6454ZM106.849 27.1485C106.272 27.1485 105.464 26.8642 105.464 26.1345C105.464 25.2153 106.472 24.8671 107.332 24.8671C108.109 24.8671 108.476 25.0353 108.937 25.2675C108.81 26.3336 107.916 27.139 106.849 27.1485ZM116.849 20.8989L114.824 26.0493H114.761L112.663 20.8989H110.765L113.913 28.0985L112.119 32.0999H113.955L118.799 20.8989H116.849ZM100.974 28.4989H102.737V16.6251H100.974V28.4989Z" fill="white"/>
<path fill-rule="evenodd" clip-rule="evenodd" d="M9.8528 7.15772C9.57964 7.45385 9.42188 7.90634 9.42188 8.49861V29.5052C9.42188 30.0975 9.57964 30.55 9.86221 30.8343L9.93521 30.8982L21.6337 19.1287V18.8657L9.92579 7.09375L9.8528 7.15772Z" fill="url(#paint0_linear_1010_151872)"/>
<path fill-rule="evenodd" clip-rule="evenodd" d="M25.5269 23.0634L21.625 19.1379V18.8631L25.5269 14.9375L25.6116 14.9896L30.227 17.6288C31.548 18.3774 31.548 19.6141 30.227 20.3722L25.6116 23.0113L25.5269 23.0634Z" fill="url(#paint1_linear_1010_151872)"/>
<path fill-rule="evenodd" clip-rule="evenodd" d="M25.6096 23.0108L21.623 19L9.85156 30.843C10.2825 31.3074 11.0054 31.3595 11.8131 30.907L25.6096 23.0108Z" fill="url(#paint2_linear_1010_151872)"/>
<path fill-rule="evenodd" clip-rule="evenodd" d="M25.6096 14.9913L11.8131 7.10698C11.0054 6.64264 10.2801 6.70661 9.85156 7.17095L21.623 19.0021L25.6096 14.9913Z" fill="url(#paint3_linear_1010_151872)"/>
<path opacity="0.2" fill-rule="evenodd" clip-rule="evenodd" d="M25.5272 22.9219L11.8248 30.754C11.0595 31.197 10.3766 31.1662 9.93628 30.7635L9.86328 30.8369L9.93628 30.9009C10.3766 31.3013 11.0595 31.3344 11.8248 30.8914L25.6214 23.0072L25.5272 22.9219Z" fill="black"/>
<path opacity="0.12" fill-rule="evenodd" clip-rule="evenodd" d="M30.2275 20.2343L25.5156 22.9256L25.6004 23.0108L30.2157 20.3717C30.8774 19.9926 31.2024 19.4951 31.2024 19C31.1623 19.4549 30.8256 19.886 30.2275 20.2343Z" fill="black"/>
<path opacity="0.25" fill-rule="evenodd" clip-rule="evenodd" d="M11.8143 7.24071L30.2262 17.7642C30.8243 18.1029 31.161 18.546 31.2128 18.9984C31.2128 18.5033 30.8879 18.0058 30.2262 17.6267L11.8143 7.10331C10.4933 6.34283 9.42188 6.97775 9.42188 8.49632V8.63373C9.42188 7.11278 10.4933 6.48972 11.8143 7.24071Z" fill="white"/>
</g>
<defs>
<linearGradient id="paint0_linear_1010_151872" x1="20.5843" y1="8.27197" x2="1.83046" y2="13.2388" gradientUnits="userSpaceOnUse">
<stop stop-color="#00A0FF"/>
<stop offset="0.00657" stop-color="#00A1FF"/>
<stop offset="0.2601" stop-color="#00BEFF"/>
<stop offset="0.5122" stop-color="#00D2FF"/>
<stop offset="0.7604" stop-color="#00DFFF"/>
<stop offset="1" stop-color="#00E3FF"/>
</linearGradient>
<linearGradient id="paint1_linear_1010_151872" x1="31.9497" y1="19.0005" x2="9.1015" y2="19.0005" gradientUnits="userSpaceOnUse">
<stop stop-color="#FFE000"/>
<stop offset="0.4087" stop-color="#FFBD00"/>
<stop offset="0.7754" stop-color="#FFA500"/>
<stop offset="1" stop-color="#FF9C00"/>
</linearGradient>
<linearGradient id="paint2_linear_1010_151872" x1="23.4419" y1="21.1825" x2="8.26318" y2="46.5751" gradientUnits="userSpaceOnUse">
<stop stop-color="#FF3A44"/>
<stop offset="1" stop-color="#C31162"/>
</linearGradient>
<linearGradient id="paint3_linear_1010_151872" x1="6.88738" y1="0.17197" x2="13.6592" y2="11.5127" gradientUnits="userSpaceOnUse">
<stop stop-color="#32A071"/>
<stop offset="0.0685" stop-color="#2DA771"/>
<stop offset="0.4762" stop-color="#15CF74"/>
<stop offset="0.8009" stop-color="#06E775"/>
<stop offset="1" stop-color="#00F076"/>
</linearGradient>
<clipPath id="clip0_1010_151872">
<rect width="128" height="38" fill="white"/>
</clipPath>
</defs>
</svg>
