<svg width="81" height="81" viewBox="0 0 81 81" fill="none" xmlns="http://www.w3.org/2000/svg">
<rect x="0.5" y="0.523438" width="80" height="80" rx="40" fill="#F6F6F6"/>
<path fill-rule="evenodd" clip-rule="evenodd" d="M31.4977 44.5234C31.4977 39.5529 35.5272 35.5234 40.4977 35.5234C45.4683 35.5234 49.4977 39.5529 49.4977 44.5234C49.4977 49.494 45.4683 53.5234 40.4977 53.5234C35.5272 53.5234 31.4977 49.494 31.4977 44.5234Z" fill="#303535"/>
<path fill-rule="evenodd" clip-rule="evenodd" d="M24.0002 72.7341C24.1549 63.7546 31.4817 56.5234 40.4977 56.5234C49.514 56.5234 56.8409 63.7549 56.9953 72.7347C57.0055 73.3303 56.6624 73.8754 56.121 74.1238C51.3632 76.307 46.0708 77.5234 40.4984 77.5234C34.9255 77.5234 29.6326 76.3068 24.8744 74.1232C24.333 73.8748 23.99 73.3296 24.0002 72.7341Z" fill="#303535"/>
</svg>
