<svg width="41" height="40" viewBox="0 0 41 40" fill="none" xmlns="http://www.w3.org/2000/svg">
<circle cx="20.3335" cy="20" r="20" fill="#EAAA70"/>
<path d="M22.9931 21.9351C23.6334 21.4445 24.104 20.7656 24.3385 19.9939C24.5731 19.2221 24.56 18.3962 24.301 17.6323C24.042 16.8683 23.5502 16.2048 22.8946 15.7348C22.239 15.2648 21.4526 15.0121 20.646 15.0121C19.8394 15.0121 19.053 15.2648 18.3974 15.7348C17.7418 16.2048 17.25 16.8683 16.991 17.6323C16.732 18.3962 16.7188 19.2221 16.9534 19.9939C17.188 20.7656 17.6586 21.4445 18.2989 21.9351C17.0974 22.3838 16.0506 23.169 15.2835 24.1969C15.1865 24.3262 15.1449 24.4887 15.1677 24.6487C15.1906 24.8087 15.2761 24.953 15.4054 25.05C15.5347 25.147 15.6972 25.1886 15.8572 25.1658C16.0172 25.1429 16.1615 25.0574 16.2585 24.9281C16.7693 24.247 17.4318 23.6941 18.1933 23.3134C18.9548 22.9326 19.7946 22.7344 20.646 22.7344C21.4974 22.7344 22.3371 22.9326 23.0987 23.3134C23.8602 23.6941 24.5226 24.247 25.0335 24.9281C25.1305 25.0574 25.2748 25.1429 25.4348 25.1658C25.5948 25.1886 25.7573 25.147 25.8866 25.05C26.0159 24.953 26.1014 24.8087 26.1242 24.6487C26.1471 24.4887 26.1055 24.3262 26.0085 24.1969C25.2414 23.169 24.1946 22.3838 22.9931 21.9351ZM18.0054 18.875C18.0054 18.3527 18.1602 17.8422 18.4504 17.4079C18.7406 16.9737 19.153 16.6352 19.6355 16.4354C20.118 16.2355 20.6489 16.1832 21.1612 16.2851C21.6734 16.387 22.1439 16.6385 22.5132 17.0078C22.8825 17.3771 23.134 17.8476 23.2359 18.3598C23.3378 18.8721 23.2855 19.403 23.0856 19.8855C22.8858 20.368 22.5473 20.7804 22.113 21.0706C21.6788 21.3608 21.1683 21.5156 20.646 21.5156C19.9457 21.5156 19.274 21.2374 18.7788 20.7422C18.2836 20.247 18.0054 19.5753 18.0054 18.875ZM27.9585 10.1406H13.3335C12.9564 10.1406 12.5947 10.2904 12.3281 10.5571C12.0614 10.8237 11.9116 11.1854 11.9116 11.5625V14.2031H10.0835C9.92188 14.2031 9.76688 14.2673 9.6526 14.3816C9.53832 14.4959 9.47412 14.6509 9.47412 14.8125C9.47412 14.9741 9.53832 15.1291 9.6526 15.2434C9.76688 15.3577 9.92188 15.4219 10.0835 15.4219H11.9116V19.8906H10.0835C9.92188 19.8906 9.76688 19.9548 9.6526 20.0691C9.53832 20.1834 9.47412 20.3384 9.47412 20.5C9.47412 20.6616 9.53832 20.8166 9.6526 20.9309C9.76688 21.0452 9.92188 21.1094 10.0835 21.1094H11.9116V25.5781H10.0835C9.92188 25.5781 9.76688 25.6423 9.6526 25.7566C9.53832 25.8709 9.47412 26.0259 9.47412 26.1875C9.47412 26.3491 9.53832 26.5041 9.6526 26.6184C9.76688 26.7327 9.92188 26.7969 10.0835 26.7969H11.9116V29.4375C11.9116 29.8146 12.0614 30.1763 12.3281 30.4429C12.5947 30.7096 12.9564 30.8594 13.3335 30.8594H27.9585C28.3356 30.8594 28.6973 30.7096 28.9639 30.4429C29.2306 30.1763 29.3804 29.8146 29.3804 29.4375V11.5625C29.3804 11.1854 29.2306 10.8237 28.9639 10.5571C28.6973 10.2904 28.3356 10.1406 27.9585 10.1406ZM28.1616 29.4375C28.1616 29.4914 28.1402 29.543 28.1021 29.5811C28.064 29.6192 28.0124 29.6406 27.9585 29.6406H13.3335C13.2796 29.6406 13.228 29.6192 13.1899 29.5811C13.1518 29.543 13.1304 29.4914 13.1304 29.4375V11.5625C13.1304 11.5086 13.1518 11.457 13.1899 11.4189C13.228 11.3808 13.2796 11.3594 13.3335 11.3594H27.9585C28.0124 11.3594 28.064 11.3808 28.1021 11.4189C28.1402 11.457 28.1616 11.5086 28.1616 11.5625V29.4375Z" fill="white"/>
</svg>
