<svg width="40" height="40" viewBox="0 0 40 40" fill="none" xmlns="http://www.w3.org/2000/svg">
<circle cx="20" cy="20" r="20" fill="#33C759"/>
<g clip-path="url(#clip0_86_9582)">
<path fill-rule="evenodd" clip-rule="evenodd" d="M28.3877 26.9562C29.3838 25.9599 29.9434 24.6087 29.9434 23.1999C29.9434 21.7911 29.3838 20.4399 28.3877 19.4437L20.2127 11.2687C19.9781 11.0343 19.8463 10.7163 19.8462 10.3847C19.8461 10.0531 19.9777 9.73509 20.2121 9.50054C20.4464 9.26599 20.7644 9.13415 21.096 9.13403C21.4276 9.13392 21.7456 9.26553 21.9802 9.49991L30.1552 17.6749C31.6205 19.1399 32.4438 21.127 32.4441 23.199C32.4443 25.2711 31.6214 27.2583 30.1564 28.7237C28.6914 30.189 26.7044 31.0123 24.6323 31.0126C22.5603 31.0128 20.573 30.1899 19.1077 28.7249L9.16519 18.7812C8.11012 17.7259 7.51746 16.2948 7.51758 14.8026C7.5177 13.3104 8.11058 11.8794 9.16581 10.8243C10.221 9.76922 11.6522 9.17656 13.1444 9.17668C14.6366 9.17679 16.0676 9.76968 17.1227 10.8249L27.0639 20.7662C27.6934 21.4145 28.0425 22.2844 28.0358 23.1881C28.0291 24.0917 27.6671 24.9564 27.028 25.5952C26.389 26.2341 25.5242 26.5959 24.6206 26.6024C23.717 26.6089 22.8471 26.2596 22.1989 25.6299L13.1414 16.5712C12.9069 16.3368 12.7751 16.0188 12.7749 15.6872C12.7748 15.3556 12.9064 15.0376 13.1408 14.803C13.3752 14.5685 13.6932 14.4367 14.0247 14.4365C14.3563 14.4364 14.6744 14.568 14.9089 14.8024L23.9677 23.8612C24.1437 24.0374 24.3826 24.1364 24.6316 24.1365C24.8807 24.1367 25.1196 24.0378 25.2958 23.8618C25.472 23.6857 25.5711 23.4469 25.5712 23.1979C25.5713 22.9488 25.4725 22.7099 25.2964 22.5337L15.3552 12.5924C15.065 12.302 14.7204 12.0716 14.3411 11.9144C13.9619 11.7572 13.5554 11.6762 13.1448 11.6761C12.7343 11.676 12.3277 11.7567 11.9484 11.9138C11.569 12.0708 11.2243 12.3009 10.9339 12.5912C10.3475 13.1773 10.0179 13.9724 10.0176 14.8015C10.0174 15.6307 10.3466 16.426 10.9327 17.0124L20.8752 26.9549C21.8715 27.951 23.2226 28.5107 24.6314 28.5107C26.0403 28.5107 27.3914 27.951 28.3877 26.9549V26.9562Z" fill="white"/>
</g>
<defs>
<clipPath id="clip0_86_9582">
<rect width="30" height="30" fill="white" transform="translate(5 5)"/>
</clipPath>
</defs>
</svg>
