<svg width="40" height="40" viewBox="0 0 40 40" fill="none" xmlns="http://www.w3.org/2000/svg">
<circle cx="20" cy="20" r="20" fill="#6492DC"/>
<path d="M18 26.5H21V29.5H18V26.5ZM20 9.5C25.35 9.72 27.68 15.12 24.5 19.17C23.67 20.17 22.33 20.83 21.67 21.67C21 22.5 21 23.5 21 24.5H18C18 22.83 18 21.42 18.67 20.42C19.33 19.42 20.67 18.83 21.5 18.17C23.92 15.93 23.32 12.76 20 12.5C19.2044 12.5 18.4413 12.8161 17.8787 13.3787C17.3161 13.9413 17 14.7044 17 15.5H14C14 13.9087 14.6321 12.3826 15.7574 11.2574C16.8826 10.1321 18.4087 9.5 20 9.5Z" fill="white"/>
</svg>
