<svg width="41" height="40" viewBox="0 0 41 40" fill="none" xmlns="http://www.w3.org/2000/svg">
<circle cx="20.5" cy="20" r="20" fill="#917BEE"/>
<path d="M11.5 10.7C11.5 10.1165 11.7318 9.55694 12.1444 9.14437C12.5569 8.73178 13.1165 8.5 13.7 8.5H22.5C22.7917 8.50006 23.0715 8.616 23.2777 8.8223L28.7777 14.3223C28.984 14.5285 29.0999 14.8083 29.1 15.1V28.3C29.1 28.8835 28.8682 29.4431 28.4556 29.8556C28.0431 30.2682 27.4835 30.5 26.9 30.5H13.7C13.1165 30.5 12.5569 30.2682 12.1444 29.8556C11.7318 29.4431 11.5 28.8835 11.5 28.3V10.7ZM26.4446 15.1L22.5 11.1554V15.1H26.4446ZM20.3 10.7H13.7V28.3H26.9V17.3H21.4C21.1083 17.3 20.8285 17.1841 20.6222 16.9778C20.4159 16.7715 20.3 16.4917 20.3 16.2V10.7ZM15.9 20.6C15.9 20.3083 16.0159 20.0285 16.2222 19.8222C16.4285 19.6159 16.7083 19.5 17 19.5H23.6C23.8917 19.5 24.1715 19.6159 24.3778 19.8222C24.5841 20.0285 24.7 20.3083 24.7 20.6C24.7 20.8917 24.5841 21.1715 24.3778 21.3778C24.1715 21.5841 23.8917 21.7 23.6 21.7H17C16.7083 21.7 16.4285 21.5841 16.2222 21.3778C16.0159 21.1715 15.9 20.8917 15.9 20.6ZM15.9 25C15.9 24.7083 16.0159 24.4285 16.2222 24.2222C16.4285 24.0159 16.7083 23.9 17 23.9H23.6C23.8917 23.9 24.1715 24.0159 24.3778 24.2222C24.5841 24.4285 24.7 24.7083 24.7 25C24.7 25.2917 24.5841 25.5715 24.3778 25.7778C24.1715 25.9841 23.8917 26.1 23.6 26.1H17C16.7083 26.1 16.4285 25.9841 16.2222 25.7778C16.0159 25.5715 15.9 25.2917 15.9 25Z" fill="white"/>
</svg>
