<svg width="41" height="41" viewBox="0 0 41 41" fill="none" xmlns="http://www.w3.org/2000/svg">
<circle cx="20.6665" cy="20.5" r="20" fill="#64A3ED"/>
<g clip-path="url(#clip0_86_9384)">
<path d="M32.1353 11.875H27.6665V9.03125H26.0415V11.875H16.2915V9.03125H14.6665V11.875H10.1978C9.87465 11.8754 9.56489 12.0039 9.33641 12.2324C9.10794 12.4609 8.97941 12.7706 8.979 13.0938V30.1562C8.97941 30.4794 9.10794 30.7891 9.33641 31.0176C9.56489 31.2461 9.87465 31.3746 10.1978 31.375H32.1353C32.4584 31.3746 32.7681 31.2461 32.9966 31.0176C33.2251 30.7891 33.3536 30.4794 33.354 30.1562V13.0938C33.3536 12.7706 33.2251 12.4609 32.9966 12.2324C32.7681 12.0039 32.4584 11.8754 32.1353 11.875ZM31.729 29.75H10.604V13.5H14.6665V15.5312H16.2915V13.5H26.0415V15.5312H27.6665V13.5H31.729V29.75Z" fill="white"/>
<path d="M20.5265 22.9135L17.7648 20.1517L16.6157 21.3008L20.5265 25.2115L26.9054 18.8326L25.7563 17.6836L20.5265 22.9135Z" fill="white"/>
</g>
<defs>
<clipPath id="clip0_86_9384">
<rect width="26" height="26" fill="white" transform="translate(8.1665 7)"/>
</clipPath>
</defs>
</svg>
