<svg width="25" height="24" viewBox="0 0 25 24" fill="none" xmlns="http://www.w3.org/2000/svg">
<circle cx="12.5" cy="12" r="12" fill="#9E9E9E"/>
<g clip-path="url(#clip0_274_171283)">
<path d="M14.5948 5.25C14.8546 5.25017 15.1063 5.34027 15.3073 5.505L15.3897 5.58L16.5613 6.75H18.5C18.8784 6.74988 19.2429 6.8928 19.5204 7.15012C19.7979 7.40744 19.9679 7.76013 19.9963 8.1375L20 8.25V17.25C20.0001 17.6284 19.8572 17.9929 19.5999 18.2704C19.3426 18.5479 18.9899 18.7179 18.6125 18.7463L18.5 18.75H6.5C6.12157 18.7501 5.75708 18.6072 5.47959 18.3499C5.2021 18.0926 5.03213 17.7399 5.00375 17.3625L5 17.25V8.25C4.99988 7.87157 5.1428 7.50708 5.40012 7.22959C5.65744 6.9521 6.01013 6.78213 6.3875 6.75375L6.5 6.75H8.4395L9.6095 5.58C9.79332 5.39581 10.0353 5.28105 10.2943 5.25525L10.4052 5.25H14.5948ZM12.5 8.625C11.5054 8.625 10.5516 9.02009 9.84835 9.72335C9.14509 10.4266 8.75 11.3804 8.75 12.375C8.75 13.3696 9.14509 14.3234 9.84835 15.0267C10.5516 15.7299 11.5054 16.125 12.5 16.125C13.4946 16.125 14.4484 15.7299 15.1517 15.0267C15.8549 14.3234 16.25 13.3696 16.25 12.375C16.25 11.3804 15.8549 10.4266 15.1517 9.72335C14.4484 9.02009 13.4946 8.625 12.5 8.625ZM12.5 10.125C12.7955 10.125 13.0881 10.1832 13.361 10.2963C13.634 10.4093 13.8821 10.5751 14.091 10.784C14.2999 10.9929 14.4657 11.241 14.5787 11.514C14.6918 11.7869 14.75 12.0795 14.75 12.375C14.75 12.6705 14.6918 12.9631 14.5787 13.236C14.4657 13.509 14.2999 13.7571 14.091 13.966C13.8821 14.1749 13.634 14.3407 13.361 14.4537C13.0881 14.5668 12.7955 14.625 12.5 14.625C11.9033 14.625 11.331 14.3879 10.909 13.966C10.4871 13.544 10.25 12.9717 10.25 12.375C10.25 11.7783 10.4871 11.206 10.909 10.784C11.331 10.3621 11.9033 10.125 12.5 10.125Z" fill="white"/>
</g>
<defs>
<clipPath id="clip0_274_171283">
<rect width="18" height="18" fill="white" transform="translate(3.5 3)"/>
</clipPath>
</defs>
</svg>
