<svg width="19" height="20" viewBox="0 0 19 20" fill="none" xmlns="http://www.w3.org/2000/svg">
<path d="M11.0859 6.35938H3.16927C2.29606 6.35938 1.58594 7.0695 1.58594 7.94271V15.8594C1.58594 16.7326 2.29606 17.4427 3.16927 17.4427H11.0859C11.9591 17.4427 12.6693 16.7326 12.6693 15.8594V7.94271C12.6693 7.0695 11.9591 6.35938 11.0859 6.35938Z" fill="black"/>
<path d="M15.8359 1.60938H7.91927C7.49934 1.60938 7.09662 1.77619 6.79969 2.07312C6.50275 2.37006 6.33594 2.77278 6.33594 3.19271V4.77604H12.6693C13.0892 4.77604 13.4919 4.94286 13.7889 5.23979C14.0858 5.53672 14.2526 5.93945 14.2526 6.35938V12.6927H15.8359C16.2559 12.6927 16.6586 12.5259 16.9555 12.229C17.2525 11.932 17.4193 11.5293 17.4193 11.1094V3.19271C17.4193 2.77278 17.2525 2.37006 16.9555 2.07312C16.6586 1.77619 16.2559 1.60938 15.8359 1.60938Z" fill="black"/>
</svg>
