<svg width="24" height="25" viewBox="0 0 24 25" fill="none" xmlns="http://www.w3.org/2000/svg">
<g id="delete_line">
<path id="delete_line_2" d="M14.28 2.09375C14.6998 2.09386 15.1088 2.22604 15.4493 2.47156C15.7898 2.71708 16.0444 3.0635 16.177 3.46175L16.72 5.09375H20C20.2652 5.09375 20.5196 5.19911 20.7071 5.38664C20.8946 5.57418 21 5.82853 21 6.09375C21 6.35897 20.8946 6.61332 20.7071 6.80086C20.5196 6.98839 20.2652 7.09375 20 7.09375L19.997 7.16475L19.13 19.3078C19.0759 20.0644 18.7372 20.7724 18.182 21.2893C17.6269 21.8062 16.8965 22.0937 16.138 22.0938H7.862C7.10346 22.0937 6.37311 21.8062 5.81797 21.2893C5.26283 20.7724 4.92411 20.0644 4.87 19.3078L4.003 7.16375C4.00119 7.14046 4.00019 7.11711 4 7.09375C3.73478 7.09375 3.48043 6.98839 3.29289 6.80086C3.10536 6.61332 3 6.35897 3 6.09375C3 5.82853 3.10536 5.57418 3.29289 5.38664C3.48043 5.19911 3.73478 5.09375 4 5.09375H7.28L7.823 3.46175C7.9557 3.06334 8.21043 2.7168 8.5511 2.47127C8.89176 2.22573 9.30107 2.09365 9.721 2.09375H14.28ZM17.997 7.09375H6.003L6.865 19.1647C6.88295 19.417 6.99577 19.653 7.18076 19.8254C7.36574 19.9977 7.60916 20.0936 7.862 20.0938H16.138C16.3908 20.0936 16.6343 19.9977 16.8192 19.8254C17.0042 19.653 17.117 19.417 17.135 19.1647L17.997 7.09375ZM10 10.0938C10.2449 10.0938 10.4813 10.1837 10.6644 10.3465C10.8474 10.5092 10.9643 10.7335 10.993 10.9768L11 11.0938V16.0938C10.9997 16.3486 10.9021 16.5938 10.7272 16.7791C10.5522 16.9645 10.313 17.076 10.0586 17.0909C9.80416 17.1059 9.55362 17.0231 9.35817 16.8595C9.16271 16.6959 9.0371 16.4638 9.007 16.2108L9 16.0938V11.0938C9 10.8285 9.10536 10.5742 9.29289 10.3866C9.48043 10.1991 9.73478 10.0938 10 10.0938ZM14 10.0938C14.2652 10.0938 14.5196 10.1991 14.7071 10.3866C14.8946 10.5742 15 10.8285 15 11.0938V16.0938C15 16.359 14.8946 16.6133 14.7071 16.8009C14.5196 16.9884 14.2652 17.0938 14 17.0938C13.7348 17.0938 13.4804 16.9884 13.2929 16.8009C13.1054 16.6133 13 16.359 13 16.0938V11.0938C13 10.8285 13.1054 10.5742 13.2929 10.3866C13.4804 10.1991 13.7348 10.0938 14 10.0938ZM14.28 4.09375H9.72L9.387 5.09375H14.613L14.28 4.09375Z" fill="white"/>
</g>
</svg>
