<svg width="43" height="43" viewBox="0 0 43 43" fill="none" xmlns="http://www.w3.org/2000/svg">
<rect opacity="0.01" x="3" width="40" height="40" fill="white"/>
<path fill-rule="evenodd" clip-rule="evenodd" d="M19.8572 12.1341C19.6571 11.8782 19.439 11.6312 19.2028 11.3951C16.2739 8.46615 11.6834 8.30785 8.94975 11.0415C6.21608 13.7752 6.37437 18.3656 9.3033 21.2946C9.53946 21.5307 9.78642 21.7489 10.0423 21.9489L10 21.9913L21.2097 33.201C22.4387 34.43 24.4314 34.43 25.6604 33.201L33.3345 25.5268L19.8995 12.0918L19.8572 12.1341Z" fill="url(#paint0_linear_4_82178)"/>
<g opacity="0.35" filter="url(#filter0_f_4_82178)">
<path d="M9 22L18.8995 12.1005L32.3345 25.5355L24.6604 33.2097C23.4314 34.4387 21.4387 34.4387 20.2097 33.2097L9 22Z" fill="#8276F5"/>
</g>
<path fill-rule="evenodd" clip-rule="evenodd" d="M25.7913 10.9285C25.8537 10.8624 25.9176 10.7971 25.9828 10.7327C28.9315 7.82364 33.7123 7.82364 36.6609 10.7327C39.6096 13.6417 39.6096 18.3583 36.6609 21.2673C35.8826 22.0352 34.9766 22.6004 34.0104 22.9629L24.7148 32.1336C23.4774 33.3543 21.4714 33.3543 20.234 32.1336L11.7963 23.8092L25.3219 10.4654L25.7913 10.9285Z" fill="url(#paint1_radial_4_82178)"/>
<g filter="url(#filter1_d_4_82178)">
<path d="M24 28.0001L27 25.0001" stroke="#8276F5" stroke-width="1.5" stroke-linecap="round"/>
</g>
<defs>
<filter id="filter0_f_4_82178" x="0.44524" y="3.54576" width="40.4445" height="39.1405" filterUnits="userSpaceOnUse" color-interpolation-filters="sRGB">
<feFlood flood-opacity="0" result="BackgroundImageFix"/>
<feBlend mode="normal" in="SourceGraphic" in2="BackgroundImageFix" result="shape"/>
<feGaussianBlur stdDeviation="4.27738" result="effect1_foregroundBlur_4_82178"/>
</filter>
<filter id="filter1_d_4_82178" x="21.25" y="22.2501" width="8.5" height="8.5" filterUnits="userSpaceOnUse" color-interpolation-filters="sRGB">
<feFlood flood-opacity="0" result="BackgroundImageFix"/>
<feColorMatrix in="SourceAlpha" type="matrix" values="0 0 0 0 0 0 0 0 0 0 0 0 0 0 0 0 0 0 127 0" result="hardAlpha"/>
<feOffset/>
<feGaussianBlur stdDeviation="1"/>
<feColorMatrix type="matrix" values="0 0 0 0 1 0 0 0 0 0.454902 0 0 0 0 0.470588 0 0 0 0.552147 0"/>
<feBlend mode="normal" in2="BackgroundImageFix" result="effect1_dropShadow_4_82178"/>
<feBlend mode="normal" in="SourceGraphic" in2="effect1_dropShadow_4_82178" result="shape"/>
</filter>
<linearGradient id="paint0_linear_4_82178" x1="-0.556827" y1="12.2284" x2="20.0645" y2="32.8497" gradientUnits="userSpaceOnUse">
<stop stop-color="#71A3FF"/>
<stop offset="1" stop-color="#7C64FA"/>
</linearGradient>
<radialGradient id="paint1_radial_4_82178" cx="0" cy="0" r="1" gradientUnits="userSpaceOnUse" gradientTransform="translate(23.6041 23.614) rotate(135.388) scale(20.434 9.99834)">
<stop stop-color="#71A3FF"/>
<stop offset="1" stop-color="white" stop-opacity="0.575967"/>
</radialGradient>
</defs>
</svg>
