<svg width="20" height="21" viewBox="0 0 20 21" fill="none" xmlns="http://www.w3.org/2000/svg">
<g id="pin_line">
<path id="pin_line_2" fill-rule="evenodd" clip-rule="evenodd" d="M7.38911 1.75781C6.98792 1.75779 6.60019 1.90248 6.29709 2.16531C5.99399 2.42815 5.79588 2.7915 5.73911 3.18865L5.30994 6.19281C5.13166 7.44103 4.64155 8.62416 3.88494 9.63281L2.78661 11.0978C2.41744 11.5895 2.56577 12.3686 3.22661 12.6145C3.84827 12.8461 5.59244 13.3478 9.16661 13.417V18.4245C9.16661 18.6455 9.25441 18.8575 9.41069 19.0137C9.56697 19.17 9.77893 19.2578 9.99994 19.2578C10.221 19.2578 10.4329 19.17 10.5892 19.0137C10.7455 18.8575 10.8333 18.6455 10.8333 18.4245V13.4161C14.4083 13.3478 16.1516 12.8461 16.7733 12.6145C17.4341 12.3686 17.5816 11.5895 17.2133 11.0978L16.1141 9.63281C15.3575 8.62416 14.8674 7.44103 14.6891 6.19281L14.2608 3.18865C14.204 2.7915 14.0059 2.42815 13.7028 2.16531C13.3997 1.90248 13.012 1.75779 12.6108 1.75781H7.38911ZM7.38911 3.42448H12.6108L13.0399 6.42865C13.2574 7.95365 13.8566 9.39948 14.7816 10.6328L15.2866 11.3061C14.3408 11.5161 12.6699 11.7578 9.99994 11.7578C7.32994 11.7578 5.65827 11.5161 4.71327 11.3061L5.21911 10.6328C6.14381 9.40009 6.74283 7.95415 6.96077 6.42865L7.38911 3.42448Z" fill="white"/>
</g>
</svg>
