<svg width="12" height="12" viewBox="0 0 12 12" fill="none" xmlns="http://www.w3.org/2000/svg">
<g id="pin_fill">
<path id="pin_fill_2" fill-rule="evenodd" clip-rule="evenodd" d="M4.43386 1C4.19314 0.999985 3.9605 1.0868 3.77865 1.2445C3.59679 1.4022 3.47792 1.62021 3.44386 1.8585L3.18636 3.661C3.07938 4.40993 2.78532 5.11981 2.33136 5.725L1.67236 6.604C1.45086 6.899 1.53986 7.3665 1.93636 7.514C2.30936 7.653 3.35586 7.954 5.50036 7.9955V11C5.50036 11.1326 5.55303 11.2598 5.6468 11.3536C5.74057 11.4473 5.86775 11.5 6.00036 11.5C6.13296 11.5 6.26014 11.4473 6.35391 11.3536C6.44768 11.2598 6.50036 11.1326 6.50036 11V7.995C8.64536 7.954 9.69135 7.653 10.0644 7.514C10.4609 7.3665 10.5494 6.899 10.3284 6.604L9.66885 5.725C9.21489 5.11981 8.92083 4.40993 8.81386 3.661L8.55686 1.8585C8.52279 1.62021 8.40392 1.4022 8.22207 1.2445C8.04021 1.0868 7.80757 0.999985 7.56686 1H4.43386Z" fill="#5D54B7"/>
</g>
</svg>
