<svg width="15" height="14" viewBox="0 0 15 14" fill="none" xmlns="http://www.w3.org/2000/svg">
<path d="M14.8067 4.37974C14.7816 5.27093 14.4156 6.11852 13.784 6.74779L11.4764 9.05541C11.1525 9.38104 10.7672 9.63916 10.3428 9.81482C9.91842 9.99047 9.4634 10.0802 9.0041 10.0787H9.00078C8.53382 10.0784 8.07166 9.98446 7.64161 9.80251C7.21156 9.62056 6.82232 9.35427 6.4969 9.01938C6.17148 8.68449 5.91647 8.28778 5.74693 7.85268C5.57739 7.41759 5.49676 6.95293 5.5098 6.48615C5.51257 6.38233 5.55577 6.2837 5.63019 6.21126C5.70462 6.13882 5.80438 6.0983 5.90824 6.09834H5.91953C6.0251 6.10129 6.12517 6.14604 6.19777 6.22274C6.27036 6.29944 6.30954 6.40183 6.30668 6.5074C6.29638 6.86784 6.35845 7.22668 6.48923 7.56271C6.62 7.89875 6.81682 8.20515 7.06805 8.46381C7.31928 8.72247 7.61982 8.92813 7.9519 9.06864C8.28398 9.20914 8.64086 9.28165 9.00144 9.28185C9.35589 9.28269 9.70698 9.21329 10.0344 9.07765C10.3619 8.94202 10.6593 8.74284 10.9093 8.49162L13.2169 6.18467C13.7043 5.67515 13.9729 4.9951 13.9651 4.29006C13.9574 3.58502 13.674 2.91102 13.1755 2.41232C12.6771 1.91362 12.0032 1.62985 11.2982 1.62175C10.5932 1.61364 9.91297 1.88185 9.4032 2.36896L8.67273 3.09943C8.59797 3.17419 8.49657 3.2162 8.39084 3.2162C8.28511 3.2162 8.18371 3.17419 8.10894 3.09943C8.03418 3.02467 7.99218 2.92327 7.99218 2.81754C7.99218 2.71181 8.03418 2.61041 8.10894 2.53564L8.83941 1.80517C9.16391 1.48056 9.54917 1.22305 9.97321 1.04736C10.3972 0.871676 10.8517 0.78125 11.3107 0.78125C11.7697 0.78125 12.2242 0.871676 12.6482 1.04736C13.0723 1.22305 13.4575 1.48056 13.782 1.80517C14.1187 2.14226 14.3832 2.54437 14.5593 2.98701C14.7355 3.42964 14.8196 3.90352 14.8067 4.37974ZM6.33191 10.9473L5.60144 11.6778C5.35121 11.9298 5.05339 12.1295 4.7253 12.2654C4.39721 12.4013 4.04539 12.4706 3.69027 12.4694C3.15681 12.469 2.63543 12.3104 2.19203 12.0138C1.74863 11.7172 1.40311 11.2958 1.19914 10.8029C0.995177 10.3099 0.941914 9.7676 1.04609 9.2444C1.15026 8.7212 1.40719 8.24063 1.78441 7.86342L4.09004 5.55646C4.4718 5.17371 4.95973 4.91446 5.49059 4.81232C6.02144 4.71019 6.57074 4.76987 7.06727 4.98364C7.5638 5.19741 7.98467 5.55541 8.27531 6.01123C8.56596 6.46704 8.71297 6.99965 8.6973 7.54002C8.69445 7.64559 8.73362 7.74797 8.80621 7.82468C8.87881 7.90138 8.97888 7.94613 9.08445 7.94908H9.09574C9.1996 7.94912 9.29936 7.9086 9.37379 7.83616C9.44821 7.76372 9.49141 7.66509 9.49418 7.56127C9.51401 6.86159 9.32329 6.17207 8.94672 5.58203C8.57016 4.99199 8.02509 4.52861 7.38214 4.25193C6.73918 3.97524 6.02796 3.89799 5.34059 4.03018C4.65322 4.16237 4.02138 4.49791 3.52691 4.99334L1.21863 7.30029C0.730107 7.78895 0.397392 8.41145 0.26253 9.08913C0.127667 9.76681 0.19671 10.4693 0.460934 11.1077C0.725157 11.7462 1.1727 12.292 1.74702 12.6762C2.32133 13.0604 2.99664 13.2657 3.68762 13.2662C4.14686 13.2676 4.6018 13.1778 5.02608 13.002C5.45035 12.8262 5.83552 12.568 6.15926 12.2422L6.88972 11.5118C6.9272 11.4749 6.95699 11.4309 6.97738 11.3824C6.99778 11.3339 7.00837 11.2819 7.00855 11.2293C7.00874 11.1767 6.9985 11.1246 6.97845 11.076C6.95839 11.0274 6.9289 10.9832 6.89169 10.946C6.85448 10.9089 6.81027 10.8794 6.76163 10.8594C6.71298 10.8394 6.66086 10.8292 6.60826 10.8295C6.55567 10.8297 6.50364 10.8404 6.45519 10.8608C6.40673 10.8813 6.3628 10.9111 6.32594 10.9487L6.33191 10.9473Z" fill="white"/>
</svg>
