<svg width="19" height="20" viewBox="0 0 19 20" fill="none" xmlns="http://www.w3.org/2000/svg">
<path d="M15.1 2.5H3.9C3.529 2.5 3.172 2.6575 2.913 2.9425C2.647 3.22 2.5 3.6025 2.5 4V13C2.5 13.3975 2.647 13.78 2.913 14.0575C3.172 14.3425 3.529 14.5 3.9 14.5H6.7L9.5 17.5L12.3 14.5H15.1C15.471 14.5 15.828 14.3425 16.087 14.0575C16.346 13.7725 16.5 13.3975 16.5 13V4C16.5 3.6025 16.353 3.22 16.087 2.9425C15.828 2.6575 15.471 2.5 15.1 2.5ZM8.135 5.53C8.513 5.26 9.01 5.125 9.633 5.125C10.291 5.125 10.816 5.2825 11.194 5.59C11.572 5.905 11.761 6.325 11.761 6.85C11.761 7.18 11.656 7.4725 11.453 7.75C11.25 8.02 10.984 8.23 10.662 8.3875C10.48 8.5 10.361 8.6125 10.298 8.74C10.235 8.875 10.2 9.04 10.2 9.25H8.8C8.8 8.875 8.87 8.62 9.003 8.44C9.15 8.26 9.388 8.05 9.752 7.81C9.934 7.705 10.081 7.57 10.2 7.405C10.298 7.2475 10.354 7.06 10.354 6.85C10.354 6.625 10.291 6.46 10.165 6.3325C10.039 6.1975 9.85 6.1375 9.633 6.1375C9.444 6.1375 9.29 6.19 9.15 6.295C9.038 6.4 8.968 6.5575 8.968 6.7675H7.589C7.554 6.25 7.75 5.8 8.135 5.53ZM8.8 11.5V10H10.2V11.5H8.8Z" fill="#5D54B7"/>
</svg>
