<svg width="19" height="20" viewBox="0 0 19 20" fill="none" xmlns="http://www.w3.org/2000/svg">
<path d="M14.8266 2.5H3.62656C3.25556 2.5 2.89856 2.6575 2.63956 2.9425C2.37356 3.22 2.22656 3.6025 2.22656 4V13C2.22656 13.3975 2.37356 13.78 2.63956 14.0575C2.89856 14.3425 3.25556 14.5 3.62656 14.5H6.42656L9.22656 17.5L12.0266 14.5H14.8266C15.1976 14.5 15.5546 14.3425 15.8136 14.0575C16.0726 13.7725 16.2266 13.3975 16.2266 13V4C16.2266 3.6025 16.0796 3.22 15.8136 2.9425C15.5546 2.6575 15.1976 2.5 14.8266 2.5ZM7.86156 5.53C8.23956 5.26 8.73656 5.125 9.35956 5.125C10.0176 5.125 10.5426 5.2825 10.9206 5.59C11.2986 5.905 11.4876 6.325 11.4876 6.85C11.4876 7.18 11.3826 7.4725 11.1796 7.75C10.9766 8.02 10.7106 8.23 10.3886 8.3875C10.2066 8.5 10.0876 8.6125 10.0246 8.74C9.96156 8.875 9.92656 9.04 9.92656 9.25H8.52656C8.52656 8.875 8.59656 8.62 8.72956 8.44C8.87656 8.26 9.11456 8.05 9.47856 7.81C9.66056 7.705 9.80756 7.57 9.92656 7.405C10.0246 7.2475 10.0806 7.06 10.0806 6.85C10.0806 6.625 10.0176 6.46 9.89156 6.3325C9.76556 6.1975 9.57656 6.1375 9.35956 6.1375C9.17056 6.1375 9.01656 6.19 8.87656 6.295C8.76456 6.4 8.69456 6.5575 8.69456 6.7675H7.31556C7.28056 6.25 7.47656 5.8 7.86156 5.53ZM8.52656 11.5V10H9.92656V11.5H8.52656Z" fill="#5D54B7"/>
</svg>
