<svg width="30" height="30" viewBox="0 0 30 30" fill="none" xmlns="http://www.w3.org/2000/svg">
<path fill-rule="evenodd" clip-rule="evenodd" d="M9.75806 8.88107L9.81694 8.93306L15.625 14.7406L21.4331 8.93306C21.6771 8.68898 22.0729 8.68898 22.3169 8.93306C22.5422 9.15836 22.5596 9.51288 22.3689 9.75806L22.3169 9.81694L16.5094 15.625L22.3169 21.4331C22.561 21.6771 22.561 22.0729 22.3169 22.3169C22.0916 22.5422 21.7371 22.5596 21.4919 22.3689L21.4331 22.3169L15.625 16.5094L9.81694 22.3169C9.57286 22.561 9.17714 22.561 8.93306 22.3169C8.70776 22.0916 8.69042 21.7371 8.88107 21.4919L8.93306 21.4331L14.7406 15.625L8.93306 9.81694C8.68898 9.57286 8.68898 9.17714 8.93306 8.93306C9.15836 8.70776 9.51288 8.69042 9.75806 8.88107Z" fill="#80888A"/>
</svg>
