<svg width="24" height="24" viewBox="0 0 24 24" fill="none" xmlns="http://www.w3.org/2000/svg">
<g clip-path="url(#clip0_9626_18349)">
<path d="M12.5 17C12.8978 17 13.2794 17.158 13.5607 17.4393C13.842 17.7206 14 18.1022 14 18.5C14 18.8978 13.842 19.2794 13.5607 19.5607C13.2794 19.842 12.8978 20 12.5 20C12.1022 20 11.7206 19.842 11.4393 19.5607C11.158 19.2794 11 18.8978 11 18.5C11 18.1022 11.158 17.7206 11.4393 17.4393C11.7206 17.158 12.1022 17 12.5 17ZM12.5 11C12.8978 11 13.2794 11.158 13.5607 11.4393C13.842 11.7206 14 12.1022 14 12.5C14 12.8978 13.842 13.2794 13.5607 13.5607C13.2794 13.842 12.8978 14 12.5 14C12.1022 14 11.7206 13.842 11.4393 13.5607C11.158 13.2794 11 12.8978 11 12.5C11 12.1022 11.158 11.7206 11.4393 11.4393C11.7206 11.158 12.1022 11 12.5 11ZM12.5 5C12.8978 5 13.2794 5.15804 13.5607 5.43934C13.842 5.72064 14 6.10218 14 6.5C14 6.89782 13.842 7.27936 13.5607 7.56066C13.2794 7.84196 12.8978 8 12.5 8C12.1022 8 11.7206 7.84196 11.4393 7.56066C11.158 7.27936 11 6.89782 11 6.5C11 6.10218 11.158 5.72064 11.4393 5.43934C11.7206 5.15804 12.1022 5 12.5 5Z" fill="#80888A"/>
</g>
<defs>
<clipPath id="clip0_9626_18349">
<rect width="24" height="24" fill="white"/>
</clipPath>
</defs>
</svg>
